<?xml version="1.0" encoding="UTF-8" standalone="no"?>
<!-- Created with Inkscape (http://www.inkscape.org/) -->

<svg
   xmlns:dc="http://purl.org/dc/elements/1.1/"
   xmlns:cc="http://creativecommons.org/ns#"
   xmlns:rdf="http://www.w3.org/1999/02/22-rdf-syntax-ns#"
   xmlns:svg="http://www.w3.org/2000/svg"
   xmlns="http://www.w3.org/2000/svg"
   xmlns:sodipodi="http://sodipodi.sourceforge.net/DTD/sodipodi-0.dtd"
   xmlns:inkscape="http://www.inkscape.org/namespaces/inkscape"
   version="1.1"
   id="svg2"
   width="2370.0747"
   height="2370.0747"
   viewBox="0 0 2370.0747 2370.0747"
   sodipodi:docname="mascot.svg.2018_07_06_00_37_27.0.svg"
   inkscape:version="0.92.5 (0.92.5+68)"
   inkscape:export-filename="/media/nugroho/Nugrihi/nugrihi/ALL File/Freelancer/Mascot/mascot.svg.2018_07_06_00_37_27.0.svg.png"
   inkscape:export-xdpi="30.37879"
   inkscape:export-ydpi="30.37879">
  <metadata
     id="metadata8">
    <rdf:RDF>
      <cc:Work
         rdf:about="">
        <dc:format>image/svg+xml</dc:format>
        <dc:type
           rdf:resource="http://purl.org/dc/dcmitype/StillImage" />
        <dc:title />
      </cc:Work>
    </rdf:RDF>
  </metadata>
  <defs
     id="defs6" />
  <sodipodi:namedview
     pagecolor="#ffffff"
     bordercolor="#666666"
     borderopacity="1"
     objecttolerance="10"
     gridtolerance="10"
     guidetolerance="10"
     inkscape:pageopacity="0"
     inkscape:pageshadow="2"
     inkscape:window-width="1366"
     inkscape:window-height="746"
     id="namedview4"
     showgrid="false"
     inkscape:zoom="0.23163827"
     inkscape:cx="1362.0375"
     inkscape:cy="1241.1593"
     inkscape:window-x="0"
     inkscape:window-y="0"
     inkscape:window-maximized="1"
     inkscape:current-layer="svg2" />
  <rect
     style="opacity:1;vector-effect:none;fill:#ffffff;fill-opacity:1;stroke:none;stroke-width:50;stroke-linecap:round;stroke-linejoin:miter;stroke-miterlimit:4;stroke-dasharray:none;stroke-dashoffset:0;stroke-opacity:1;paint-order:fill markers stroke"
     id="rect1140"
     width="2370.0747"
     height="2370.0747"
     x="0"
     y="0" />
  <ellipse
     style="opacity:1;vector-effect:none;fill:#cccccc;fill-opacity:1;stroke:none;stroke-width:50;stroke-linecap:round;stroke-linejoin:miter;stroke-miterlimit:4;stroke-dasharray:none;stroke-dashoffset:0;stroke-opacity:1;paint-order:fill markers stroke"
     id="path1144"
     cx="1258.2942"
     cy="2148.1494"
     rx="767.04236"
     ry="144.3591" />
  <path
     style="opacity:1;vector-effect:none;fill:#333333;fill-opacity:1;stroke:#000000;stroke-width:32;stroke-linecap:round;stroke-linejoin:miter;stroke-miterlimit:4;stroke-dasharray:none;stroke-dashoffset:0;stroke-opacity:1;paint-order:fill markers stroke"
     d="m 813.23364,207.22336 c -8.8917,0.1215 -18.5888,4.87738 -32.4941,18.05078 -19.3465,18.32821 -100.5957,143.4062 -87.4629,185.74609 0,0 20.1601,34.55992 20.1601,43.91992 0,9.36 -44.64,92.15914 -64.08,123.11914 -8.3422,13.28565 -42.1779,72.42892 -79.6641,138.85157 -5.7097,-3.26169 -12.4903,-5.57852 -20.416,-6.3711 -42.7581,-4.27581 -46.0787,28.79899 -26.6387,48.95899 0.3834,0.39763 0.7941,0.77207 1.1973,1.15234 -2.2161,-0.51222 -4.5282,-0.90946 -6.9571,-1.15234 -40.7025,-4.07025 -45.6529,25.69857 -29.2675,45.96093 -28.6286,2.78758 -31.0183,27.76176 -16.9063,45.6543 -24.4096,5.94314 -23.8858,31.41193 -7.8262,48.06641 1.127,1.16869 2.3496,2.25359 3.6387,3.27344 -6.8179,12.64086 -11.9896,22.45247 -14.6719,27.95117 -20.3647,41.74758 -31.1148,63.23719 -58.0332,116.584 -4.1537,8.2319 8.1465,19.3477 17.3106,25.4571 9.1641,6.1094 38.6914,19.3464 44.8008,6.1093 4.0745,-8.828 39.4816,-83.04057 69.6582,-146.79298 4.6852,5.82607 11.6668,10.20633 21.5351,12.05664 16.0768,3.01439 34.3308,-0.0549 49.2617,-7.88867 -8.5803,16.81438 -13.2617,28.76953 -13.2617,28.76953 0,0 92.1605,260.63898 276.4805,326.87898 -37.44,141.12 -57.5996,387.3613 -57.5996,387.3613 0,0 -29.4024,304.8253 -23.293,339.4453 0,0 -2.0341,1.4154 -5.2441,3.75 -0.673,0.4885 -1.3647,0.9963 -2.1524,1.5762 -0.5632,0.4151 -1.1061,0.8183 -1.7226,1.2773 -1.1854,0.8818 -2.4731,1.8527 -3.8535,2.9024 -0.5271,0.4006 -1.002,0.7574 -1.5528,1.1797 -1.9283,1.4789 -3.9684,3.0613 -6.1992,4.8281 0,0 0,0 0,0 -5.323,4.2159 -11.2827,9.1213 -17.4141,14.4903 -0.1777,0.1556 -0.3552,0.3123 -0.5332,0.4687 -1.3689,1.2029 -2.7405,2.4277 -4.1192,3.6739 -0.1916,0.1732 -0.3824,0.3454 -0.5742,0.5195 -1.4085,1.2783 -2.8147,2.575 -4.2207,3.8926 -0.1421,0.1332 -0.2837,0.2648 -0.4258,0.3984 -1.4893,1.4005 -2.9712,2.818 -4.4433,4.2559 -0.049,0.047 -0.098,0.093 -0.1465,0.1406 -14.3788,14.0633 -27.585,29.7476 -33.3633,44.1699 0,0 0,0 0,0 -0.011,0.027 -0.019,0.053 -0.029,0.08 -0.2439,0.6113 -0.4749,1.2196 -0.6914,1.8262 -0.019,0.052 -0.037,0.1027 -0.055,0.1543 -0.2128,0.6019 -0.4128,1.202 -0.5977,1.7988 -0.015,0.049 -0.03,0.097 -0.045,0.1465 -0.1819,0.5943 -0.3527,1.1867 -0.5059,1.7754 -0.019,0.073 -0.034,0.1457 -0.053,0.2187 -0.1411,0.5549 -0.274,1.1068 -0.3887,1.6563 -0.03,0.1451 -0.053,0.2888 -0.082,0.4335 -0.095,0.4819 -0.1864,0.9641 -0.2598,1.4415 -0.035,0.2252 -0.058,0.4476 -0.088,0.6718 -0.053,0.4006 -0.1108,0.8021 -0.1484,1.1993 -0.029,0.2994 -0.039,0.5951 -0.059,0.8925 -0.021,0.3265 -0.05,0.6546 -0.06,0.9785 -0.02,0.6167 -0.022,1.2291 0,1.836 0.056,1.575 0.4115,3.1412 1.0468,4.6933 0.1271,0.3105 0.2648,0.6185 0.4141,0.9278 0.299,0.6193 0.6428,1.2355 1.0293,1.8496 0.386,0.6133 0.8142,1.2226 1.2852,1.8301 0,0 0,0 0,0 0.2352,0.3033 0.4823,0.6045 0.7382,0.9063 0,0 0,0 0,0 0.256,0.3018 0.5224,0.6023 0.7989,0.9024 0.2761,0.2998 0.5923,0.5964 0.8886,0.8945 0.2976,0.2993 0.577,0.601 0.8946,0.8984 2.5349,2.3745 5.7006,4.6886 9.4238,6.92 0.9308,0.5578 1.8954,1.109 2.8945,1.6562 24.9779,13.6806 70.9395,23.928 119.3477,25.4199 0,0 0,0 0,0 21.2983,0.6563 43.0708,-0.3818 63.7364,-3.5683 5.6356,-0.869 11.1898,-1.8981 16.6289,-3.0957 0,0 0,0 0,0 5.4397,-1.1979 10.7643,-2.5644 15.9434,-4.1094 6.9054,-2.06 13.5502,-4.437 19.8594,-7.1524 3.154,-1.3574 6.2246,-2.8007 9.2011,-4.33 5.9541,-3.0593 11.5341,-6.4681 16.6641,-10.2481 0,0 0,0 0,0 -0.1,-2.0485 -0.2116,-4.0519 -0.332,-6.0293 -0.01,-0.1372 -0.019,-0.2674 -0.027,-0.4043 -0.1098,-1.7796 -0.2285,-3.5302 -0.3535,-5.2519 -0.016,-0.2145 -0.031,-0.4232 -0.047,-0.6367 -0.1223,-1.6536 -0.2516,-3.2812 -0.3867,-4.8809 -0.018,-0.215 -0.038,-0.4266 -0.057,-0.6406 -4.0477,-47.1226 -13.3965,-70.6797 -13.3965,-70.6797 0,0 118.11486,-179.2083 191.42776,-207.7188 166.9903,-18.3283 242.3398,-18.33 242.3398,-18.33 l 195.0274,223.4707 c -2.4545,1.5804 -3.8223,2.5781 -3.8223,2.5781 0,0 -8.6896,21.8954 -12.9414,65.6894 -5e-4,-2e-4 0,3e-4 0,0 -0.01,0.1029 -0.019,0.2114 -0.029,0.3145 -0.1465,1.5201 -0.2866,3.0679 -0.4218,4.6406 -0.02,0.2259 -0.039,0.4489 -0.059,0.6758 -0.1352,1.5997 -0.2645,3.2273 -0.3868,4.8809 -0.016,0.2135 -0.031,0.4222 -0.047,0.6367 -0.125,1.7217 -0.2437,3.4723 -0.3535,5.2519 -0.01,0.163 -0.021,0.3209 -0.031,0.4844 -0.1184,1.9513 -0.2296,3.9287 -0.3281,5.9492 3.8475,2.835 7.9478,5.4622 12.2695,7.8887 5e-4,3e-4 0,-3e-4 0,0 1.4401,0.8085 2.9045,1.5948 4.3925,2.3594 2.9771,1.5296 6.0486,2.9724 9.2032,4.33 3.1545,1.3577 6.3919,2.6312 9.705,3.8223 6e-4,2e-4 0,-2e-4 0,0 3.3126,1.1909 6.7002,2.3003 10.1523,3.3301 5.1791,1.545 10.5037,2.9115 15.9434,4.1094 5.4397,1.1978 10.9946,2.2266 16.6309,3.0957 16.9087,2.6072 34.5574,3.7765 52.082,3.7558 31.5453,-0.037 62.6763,-3.9331 88.3691,-10.2324 4.084,-1.0013 8.0281,-2.0645 11.8164,-3.1816 4.7433,-1.3987 9.2527,-2.8798 13.461,-4.4395 2.6104,-0.9675 5.1085,-1.962 7.4883,-2.9844 8e-4,-3e-4 0,0 0,0 1.1891,-0.5109 2.3486,-1.0273 3.4766,-1.5508 8e-4,-4e-4 0,0 0,0 3.3851,-1.5712 6.4915,-3.1979 9.2832,-4.871 3.7232,-2.2314 6.8889,-4.5455 9.4239,-6.92 0.6334,-0.5933 1.2279,-1.1905 1.7812,-1.791 6e-4,-7e-4 0,0 0,0 0.2764,-0.3001 0.5428,-0.6006 0.7988,-0.9024 3e-4,-4e-4 -3e-4,0 0,0 0.2559,-0.3018 0.5031,-0.603 0.7383,-0.9063 3e-4,-4e-4 -4e-4,0 0,0 0.2355,-0.3037 0.4594,-0.6069 0.6738,-0.9121 0.6437,-0.9165 1.1924,-1.8391 1.6406,-2.7676 0.1494,-0.3093 0.287,-0.6173 0.4141,-0.9278 0.3812,-0.9312 0.6605,-1.8683 0.8359,-2.8086 0.059,-0.3134 0.1056,-0.6271 0.1407,-0.9414 0.035,-0.3142 0.059,-0.6283 0.07,-0.9433 0.011,-0.2982 -7e-4,-0.6018 0,-0.9024 6e-4,-0.311 0.01,-0.6201 0,-0.9336 -0.01,-0.3239 -0.039,-0.652 -0.061,-0.9785 -0.02,-0.2974 -0.03,-0.5931 -0.059,-0.8925 -0.038,-0.3972 -0.095,-0.7987 -0.1484,-1.1993 -0.03,-0.2242 -0.053,-0.4466 -0.088,-0.6718 -0.073,-0.4774 -0.1652,-0.9596 -0.2598,-1.4415 -0.028,-0.1447 -0.051,-0.2884 -0.082,-0.4335 -0.1076,-0.5157 -0.2323,-1.0342 -0.3633,-1.5547 -0.03,-0.1201 -0.058,-0.2391 -0.09,-0.3594 -0.1461,-0.559 -0.3086,-1.1215 -0.4805,-1.6856 -0.022,-0.072 -0.042,-0.143 -0.064,-0.2148 -0.1833,-0.5909 -0.3812,-1.1852 -0.5918,-1.7812 -0.018,-0.051 -0.035,-0.1016 -0.053,-0.1524 -0.2262,-0.6337 -0.4686,-1.2692 -0.7246,-1.9082 -5.7784,-14.4226 -18.986,-30.1063 -33.3652,-44.1699 -1.5201,-1.4868 -3.0512,-2.9516 -4.5899,-4.3985 -0.1414,-0.133 -0.2823,-0.2638 -0.4238,-0.3964 -1.4059,-1.3176 -2.8122,-2.6143 -4.2207,-3.8926 -0.1918,-0.1741 -0.3825,-0.3463 -0.5742,-0.5195 -1.3787,-1.2462 -2.7502,-2.471 -4.1192,-3.6739 -0.1762,-0.1548 -0.3514,-0.3107 -0.5273,-0.4648 -6.1337,-5.3712 -12.0952,-10.2789 -17.4199,-14.4961 -2.203,-1.7448 -4.2227,-3.3113 -6.1309,-4.7754 -0.5965,-0.4575 -1.1148,-0.8491 -1.6836,-1.2813 -1.4001,-1.0642 -2.7002,-2.0448 -3.8984,-2.9355 -0.5327,-0.3964 -1.0016,-0.7441 -1.4942,-1.1074 -0.8207,-0.6047 -1.5499,-1.1397 -2.248,-1.6465 -3.2238,-2.345 -5.2676,-3.7676 -5.2676,-3.7676 -3.8266,-0.8323 -7.5995,-1.5592 -11.3281,-2.207 1.8911,-1.8826 3.7129,-3.8532 5.4394,-5.9395 -24.4376,-215.8655 -77.3847,-331.9453 -77.3847,-331.9453 0,0 -38.6944,-248.3623 -91.6426,-403.2187 126.261,-61.094 234.1953,-368.60164 234.1953,-368.60164 0,0 -0.224,-0.65785 -0.7617,-1.86914 7.1659,0.80133 14.358,0.63086 21.1602,-0.64454 14.2124,-2.66483 22.4476,-10.57011 26.4296,-20.50195 40.041,66.87818 71.5164,115.83357 79.3282,118.43747 25.8554,8.6185 51.7112,-17.23767 49.5566,-34.47458 -0.6599,-5.27933 -28.5373,-50.57538 -67.5176,-112.27539 12.4179,-16.45071 11.0636,-38.42497 -11.3847,-43.89062 14.1119,-17.89215 11.7226,-42.86772 -16.9043,-45.65625 16.3838,-20.26234 11.4319,-50.02913 -29.2696,-45.95899 -2.4288,0.24289 -4.7409,0.63817 -6.957,1.15039 0.4031,-0.38016 0.8139,-0.75287 1.1973,-1.15039 19.44,-20.16 16.1194,-53.23675 -26.6387,-48.96094 -8.9595,0.89596 -16.4561,3.74 -22.5957,7.69532 -66.484,-104.28539 -128.7464,-202.67777 -140.9668,-228.0586 -28.0099,-58.17456 -53.8652,-204.68934 -200.3789,-178.83398 -146.5137,25.85537 -124.9668,140.05052 -58.1738,155.13281 66.793,15.0823 157.2857,-49.5559 219.7695,51.71094 0,0 56.8266,102.86055 121.9492,217.36523 -16.8642,4.43663 -32.1358,17.88052 -41.2851,39.06836 -10.5577,24.44925 -2.2639,62.52247 2.08,78.67383 -1.5078,-0.89068 -2.9812,-1.77714 -4.5332,-2.67383 -54.097,15.91089 -155.1182,77.66542 -239.541,133.20313 -6.2293,-44.24096 -11.789,-61.3418 -11.789,-61.3418 0,0 73.4396,1.43867 67.6796,-63.36133 -3.8544,-43.36271 -33.5015,-53.18871 -60.8945,-44.59179 -13.1174,-43.81272 -24.8876,-79.95161 -41.8945,-115.70508 38.644,-8.99631 72.8386,-19.63125 101.1211,-30.4668 -84.5558,-92.90633 -305.4707,-189.39062 -305.4707,-189.39062 0,0 -175.1356,89.60433 -289.17776,197.53711 31.1494,11.25219 62.4386,20.1709 93.57226,27.09765 -22.6725,46.89495 -42.29676,100.32641 -52.59566,129.89844 -29.6543,-7.88855 -56.0415,7.8763 -63.8594,34.26172 -11.52,38.88 35.9992,86.4007 79.1992,54.7207 -11.3322,37.60231 -20.2588,71.69757 -27.2617,104.80273 -73.4007,-40.42752 -245.7221,-134.4622 -285.2187,-148.0039 -1.2061,0.7113 -2.3986,1.46034 -3.586,2.22461 4.0404,-18.82156 7.759,-47.35464 -0.7343,-67.02344 -10.3969,-24.0769 -28.6951,-38.16043 -48.2579,-40.37891 52.0948,-100.6234 118.1288,-225.79745 123.4219,-235.06054 8.1459,-14.25527 8.1464,-20.36589 29.5293,-19.34766 21.3829,1.01823 58.0388,25.45599 100.8047,-33.60156 42.7658,-59.05756 89.6035,-123.20631 89.6035,-139.49805 0,-16.29174 -13.2362,-23.41852 -43.7832,-43.7832 -30.547,-20.36468 -86.5507,-49.89386 -98.7695,-53.9668 -3.4366,-1.14551 -6.7922,-1.80731 -10.2715,-1.75976 z m -11.7676,29.79101 c 11.7725,0.46737 30.1096,15.55903 23.75,25.31055 -29.626,47.4015 -80.7982,109.88412 -85.1074,91.03125 -4.3092,-18.85286 53.8652,-113.11719 53.8652,-113.11719 1.414,-2.12095 3.6792,-3.10431 6.375,-3.22265 0.3651,-0.016 0.7374,-0.017 1.1172,-0.002 z m 51.711,30.4336 c 11.7727,0.46736 30.1098,15.55903 23.75,25.31054 -29.626,47.4015 -80.7983,109.88412 -85.1075,91.03125 -4.3092,-18.85286 53.8653,-113.11719 53.8653,-113.11719 1.414,-2.12092 3.6793,-3.10429 6.375,-3.22265 0.3651,-0.016 0.7375,-0.017 1.1172,-0.002 z m 51.7109,30.43359 c 11.7725,0.46737 30.1096,15.55903 23.75,25.31055 -29.626,47.4015 -80.7982,109.88607 -85.1074,91.0332 -4.3092,-18.85286 53.8652,-113.11719 53.8652,-113.11719 1.4139,-2.12095 3.6792,-3.10625 6.375,-3.22461 0.365,-0.016 0.7374,-0.017 1.1172,-0.002 z m 888.17376,475.03711 c 1.1685,0.43818 2.3185,0.80205 3.4512,1.10351 1.6274,0.57025 2.8105,0.94922 2.8105,0.94922 l -0.7246,-0.4707 c 0.6207,0.12224 1.235,0.22596 1.8418,0.30664 6.6826,11.58217 13.3456,23.10311 19.9239,34.4082 -1.9753,-0.80937 -3.8473,-1.53661 -5.6368,-2.20507 -0.749,-12.10484 -8.6976,-23.55502 -21.666,-34.0918 z M 591.75704,812.78 c -12.969,10.53733 -20.9177,21.98624 -21.666,34.09179 -1.8036,0.6738 -3.6914,1.40572 -5.6836,2.22266 3.7913,-7.97886 9.7528,-19.9672 16.9336,-34.19141 1.5723,-0.0301 3.2032,-0.21193 4.8828,-0.54297 l -0.7285,0.47266 c 0,0 1.1793,-0.37929 2.8008,-0.94726 1.1358,-0.30195 2.2891,-0.66604 3.4609,-1.10547 z"
     id="path993"
     inkscape:connector-curvature="0" />
  <path
     style="opacity:1;vector-effect:none;fill:#800000;fill-opacity:1;stroke:#000000;stroke-width:11.33858299;stroke-linecap:round;stroke-linejoin:miter;stroke-miterlimit:4;stroke-dasharray:none;stroke-dashoffset:0;stroke-opacity:1;paint-order:fill markers stroke"
     d="m 1758.0241,2018.3847 c 0,0 90.4674,62.3148 89.0274,102.6348 -1.44,40.32 -198.72,74.88 -280.8,14.4 2.88,-59.04 14.5999,-88.5243 14.5999,-88.5243 0,0 69.4253,-51.9453 177.1727,-28.5105 z"
     id="path886"
     inkscape:connector-curvature="0" />
  <path
     style="opacity:1;vector-effect:none;fill:#ffffff;fill-opacity:1;stroke:#000000;stroke-width:11.33858299;stroke-linecap:round;stroke-linejoin:miter;stroke-miterlimit:4;stroke-dasharray:none;stroke-dashoffset:0;stroke-opacity:1;paint-order:fill markers stroke"
     d="m 1761.463,2020.8269 c 3.5558,2.5505 9.5715,6.963 17.2851,13.0723 -13.6272,10.7374 -29.612,34.7008 -38.5429,52.1973 -17.8191,-11.2005 -17.8184,-11.709 -17.8184,-11.709 0,0 13.3181,-35.0208 39.0762,-53.5606 z m 30.2441,23.7168 c 6.1845,5.2663 12.6549,11.0735 18.916,17.1973 -13.1443,14.7442 -28.65,33.8834 -31.2168,44.7207 -17.8191,-6.1094 -23.9277,-12.2188 -23.9277,-12.2188 0,0 12.2784,-30.1278 36.2285,-49.6992 z"
     id="path888"
     inkscape:connector-curvature="0"
     sodipodi:nodetypes="cccccccccc" />
  <path
     inkscape:connector-curvature="0"
     style="opacity:1;vector-effect:none;fill:#2b0000;fill-opacity:1;stroke:#000000;stroke-width:11.33858299;stroke-linecap:round;stroke-linejoin:miter;stroke-miterlimit:4;stroke-dasharray:none;stroke-dashoffset:0;stroke-opacity:1;paint-order:fill markers stroke"
     d="m 1843.9884,2105.9109 c 2.1035,5.2506 3.233,10.3356 3.0625,15.1094 -1.44,40.32 -198.7189,74.8784 -280.7989,14.3984 0.3994,-8.1869 0.9718,-15.7835 1.6563,-22.834 125.5101,61.2698 231.9915,17.8455 276.0801,-6.6738 z"
     id="path890" />
  <path
     style="opacity:1;vector-effect:none;fill:#ffccaa;fill-opacity:1;stroke:#000000;stroke-width:11.33858299;stroke-linecap:round;stroke-linejoin:miter;stroke-miterlimit:4;stroke-dasharray:none;stroke-dashoffset:0;stroke-opacity:1;paint-order:fill markers stroke"
     d="m 1800.9814,802.4391 c 0,0 47.52,12.96 59.04,35.28 11.52,22.32 12.24,59.76 -22.32,66.24 -34.56,6.48 -79.2,-15.12 -79.2,-51.84 0,-36.72 24.48,-52.56 42.48,-49.68 z"
     id="path892"
     inkscape:connector-curvature="0" />
  <path
     inkscape:connector-curvature="0"
     id="path894"
     d="m 1633.1968,478.32419 c 0,0 284.409,514.95262 310.2643,523.57111 25.8554,8.6184 51.7108,-17.23695 49.5562,-34.47386 -2.1547,-17.2369 -293.0275,-458.93266 -321.0375,-517.10723 -28.0099,-58.17456 -53.8653,-204.68828 -200.379,-178.83292 -146.5137,25.85537 -124.9676,140.04988 -58.1746,155.13217 66.793,15.0823 157.2868,-49.55611 219.7706,51.71073 z"
     style="opacity:1;vector-effect:none;fill:#4d4d4d;fill-opacity:1;stroke:#000000;stroke-width:11.33858299;stroke-linecap:round;stroke-linejoin:miter;stroke-miterlimit:4;stroke-dasharray:none;stroke-dashoffset:0;stroke-opacity:1;paint-order:fill markers stroke" />
  <path
     style="opacity:1;vector-effect:none;fill:#ffccaa;fill-opacity:1;stroke:#000000;stroke-width:11.33858299;stroke-linecap:round;stroke-linejoin:miter;stroke-miterlimit:4;stroke-dasharray:none;stroke-dashoffset:0;stroke-opacity:1;paint-order:fill markers stroke"
     d="m 1791.6214,721.7991 c -4.4803,-12.51812 7.92,-47.52 43.92,-51.12 42.7581,-4.27581 46.08,28.8 26.64,48.96 -19.44,20.16 -64.9207,17.91641 -70.56,2.16 z"
     id="path896"
     inkscape:connector-curvature="0"
     sodipodi:nodetypes="ssss" />
  <path
     style="opacity:1;vector-effect:none;fill:#ffccaa;fill-opacity:1;stroke:#000000;stroke-width:11.33858299;stroke-linecap:round;stroke-linejoin:miter;stroke-miterlimit:4;stroke-dasharray:none;stroke-dashoffset:0;stroke-opacity:1;paint-order:fill markers stroke"
     d="m 1718.1814,821.1591 c 0,0 -18,-54.72 -4.32,-86.4 13.68,-31.68 41.04,-46.08 66.96,-38.88 25.92,7.2 44.64,37.43999 43.92,56.16 -0.72,18.72 -14.4,27.36 -31.68,20.88 23.04,18.72 30.24,40.32 9.36,63.36 -20.88,23.04 -72.72,33.12 -84.24,-15.12 z"
     id="path898"
     inkscape:connector-curvature="0" />
  <path
     sodipodi:nodetypes="ssss"
     inkscape:connector-curvature="0"
     id="path900"
     d="m 1851.3814,861.4791 c -4.4803,-12.51812 7.92,-47.52 43.92,-51.12 42.7581,-4.27581 46.08,28.8 26.64,48.96 -19.44,20.16 -64.9207,17.91641 -70.56,2.16 z"
     style="opacity:1;vector-effect:none;fill:#ffccaa;fill-opacity:1;stroke:#000000;stroke-width:11.33858299;stroke-linecap:round;stroke-linejoin:miter;stroke-miterlimit:4;stroke-dasharray:none;stroke-dashoffset:0;stroke-opacity:1;paint-order:fill markers stroke" />
  <path
     style="opacity:1;vector-effect:none;fill:#ffccaa;fill-opacity:1;stroke:#000000;stroke-width:11.33858299;stroke-linecap:round;stroke-linejoin:miter;stroke-miterlimit:4;stroke-dasharray:none;stroke-dashoffset:0;stroke-opacity:1;paint-order:fill markers stroke"
     d="m 1840.5814,816.8391 c -4.4803,-12.51812 7.92,-47.52 43.92,-51.12 42.7581,-4.27581 46.08,28.8 26.64,48.96 -19.44,20.16 -64.9207,17.91641 -70.56,2.16 z"
     id="path902"
     inkscape:connector-curvature="0"
     sodipodi:nodetypes="ssss" />
  <path
     sodipodi:nodetypes="ssss"
     inkscape:connector-curvature="0"
     id="path904"
     d="m 1824.0214,770.7591 c -4.4803,-12.51812 7.92,-47.52 43.92,-51.12 42.7581,-4.27581 46.08,28.8 26.64,48.96 -19.44,20.16 -64.9207,17.91641 -70.56,2.16 z"
     style="opacity:1;vector-effect:none;fill:#ffccaa;fill-opacity:1;stroke:#000000;stroke-width:11.33858299;stroke-linecap:round;stroke-linejoin:miter;stroke-miterlimit:4;stroke-dasharray:none;stroke-dashoffset:0;stroke-opacity:1;paint-order:fill markers stroke" />
  <path
     style="opacity:1;vector-effect:none;fill:#502d16;fill-opacity:1;stroke:#000000;stroke-width:11.33858299;stroke-linecap:round;stroke-linejoin:miter;stroke-miterlimit:4;stroke-dasharray:none;stroke-dashoffset:0;stroke-opacity:1;paint-order:fill markers stroke"
     d="m 1799.3238,774.97199 c 0,0 -26.8559,-8.0186 -35.1291,-22.78299"
     id="path906"
     inkscape:connector-curvature="0"
     sodipodi:nodetypes="cc" />
  <path
     inkscape:connector-curvature="0"
     id="path908"
     d="m 778.70464,2018.3847 c 0,0 -90.4674,62.3148 -89.0274,102.6348 1.44,40.32 198.72,74.88 280.8,14.4 -2.88,-59.04 -14.5999,-88.5243 -14.5999,-88.5243 0,0 -69.4253,-51.9453 -177.1727,-28.5105 z"
     style="opacity:1;vector-effect:none;fill:#800000;fill-opacity:1;stroke:#000000;stroke-width:11.33858299;stroke-linecap:round;stroke-linejoin:miter;stroke-miterlimit:4;stroke-dasharray:none;stroke-dashoffset:0;stroke-opacity:1;paint-order:fill markers stroke" />
  <path
     sodipodi:nodetypes="cccccccccc"
     inkscape:connector-curvature="0"
     id="path910"
     d="m 775.26574,2020.8269 c -3.5558,2.5505 -9.5715,6.963 -17.2851,13.0723 13.6272,10.7374 29.612,34.7008 38.5429,52.1973 17.8191,-11.2005 17.8184,-11.709 17.8184,-11.709 0,0 -13.3181,-35.0208 -39.0762,-53.5606 z m -30.2441,23.7168 c -6.1845,5.2663 -12.6549,11.0735 -18.916,17.1973 13.1443,14.7442 28.65,33.8834 31.2168,44.7207 17.8191,-6.1094 23.9277,-12.2188 23.9277,-12.2188 0,0 -12.2784,-30.1278 -36.2285,-49.6992 z"
     style="opacity:1;vector-effect:none;fill:#ffffff;fill-opacity:1;stroke:#000000;stroke-width:11.33858299;stroke-linecap:round;stroke-linejoin:miter;stroke-miterlimit:4;stroke-dasharray:none;stroke-dashoffset:0;stroke-opacity:1;paint-order:fill markers stroke" />
  <path
     inkscape:connector-curvature="0"
     id="path912"
     d="m 801.99724,1678.9395 c 0,0 -29.402,304.8252 -23.2926,339.4452 85.5317,38.6929 177.1727,28.5105 177.1727,28.5105 0,0 118.11506,-179.2091 191.42796,-207.7196 166.9903,-18.3283 242.3396,-18.3283 242.3396,-18.3283 l 195.5009,224.0115 c 0,0 118.1151,24.4376 166.9903,-34.62 -24.4376,-215.8655 -77.3858,-331.9442 -77.3858,-331.9442 0,0 -584.7197,-102.5701 -872.75306,0.6449 z"
     style="opacity:1;vector-effect:none;fill:#ffffff;fill-opacity:1;stroke:#000000;stroke-width:11.33858299;stroke-linecap:round;stroke-linejoin:miter;stroke-miterlimit:4;stroke-dasharray:none;stroke-dashoffset:0;stroke-opacity:1;paint-order:fill markers stroke" />
  <path
     style="opacity:1;vector-effect:none;fill:#e6e6e6;fill-opacity:1;stroke:none;stroke-width:50;stroke-linecap:round;stroke-linejoin:miter;stroke-miterlimit:4;stroke-dasharray:none;stroke-dashoffset:0;stroke-opacity:1;paint-order:fill markers stroke"
     d="m 816.59834,1683.8305 c 0,0 142.2045,105.576 344.73816,116.3491 202.5336,10.7731 354.4339,-8.6185 405.0673,-32.3192 50.6334,-23.7008 87.2618,-84.0299 87.2618,-84.0299 z"
     id="path1121"
     inkscape:connector-curvature="0" />
  <path
     sodipodi:nodetypes="ccccccc"
     inkscape:connector-curvature="0"
     id="path915"
     d="m 1330.5873,1040.8803 c 0,0 276.9596,-199.57389 380.8195,-230.1209 91.641,52.94815 105.8963,95.71397 105.8963,95.71397 0,0 -107.9328,307.50663 -234.1938,368.60063 52.9482,154.8564 91.641,403.2206 91.641,403.2206 0,0 -148.6621,85.5317 -291.2148,57.0211 -77.3858,-213.8291 -52.9482,-694.4354 -52.9482,-694.4354 z"
     style="opacity:1;vector-effect:none;fill:#ffffff;fill-opacity:1;stroke:#000000;stroke-width:11.33858299;stroke-linecap:round;stroke-linejoin:miter;stroke-miterlimit:4;stroke-dasharray:none;stroke-dashoffset:0;stroke-opacity:1;paint-order:fill markers stroke" />
  <path
     inkscape:connector-curvature="0"
     id="path917"
     d="m 583.83724,842.29945 c 0,0 -47.52,12.96 -59.04,35.28 -11.52,22.32 -12.24,59.76 22.32,66.24 34.56,6.48 79.2,-15.12 79.2,-51.84 0,-36.72 -24.48,-52.56 -42.48,-49.68 z"
     style="opacity:1;vector-effect:none;fill:#ffccaa;fill-opacity:1;stroke:#000000;stroke-width:11.33858299;stroke-linecap:round;stroke-linejoin:miter;stroke-miterlimit:4;stroke-dasharray:none;stroke-dashoffset:0;stroke-opacity:1;paint-order:fill markers stroke" />
  <path
     sodipodi:nodetypes="cscssssscscscssccccscccccscccccsccc"
     inkscape:connector-curvature="0"
     id="path920"
     d="m 813.23454,207.22336 c -8.8917,0.1215 -18.5889,4.87738 -32.4942,18.05078 -19.3465,18.32821 -100.5957,143.4062 -87.4629,185.74609 0,0 20.1602,34.55992 20.1602,43.91992 0,9.36 -44.6401,92.15914 -64.0801,123.11914 -19.44,30.96 -177.1487,310.59801 -197.5134,352.3456 -20.3647,41.74758 -31.1131,63.23727 -58.0315,116.58411 -4.1537,8.2319 8.1465,19.3477 17.3106,25.4571 9.1641,6.1094 38.6913,19.3464 44.8007,6.1093 6.1094,-13.237 82.983,-174.12523 106.4024,-225.03692 23.4194,-50.91169 175.6491,-340.08282 183.7949,-354.33809 8.1459,-14.25527 8.1464,-20.36589 29.5293,-19.34766 21.3829,1.01823 58.0388,25.45599 100.8047,-33.60156 42.7658,-59.05756 89.6035,-123.20631 89.6035,-139.49805 0,-16.29174 -13.2362,-23.41852 -43.7832,-43.7832 -30.547,-20.36468 -86.5507,-49.89386 -98.7695,-53.9668 -3.4366,-1.14551 -6.7922,-1.80731 -10.2715,-1.75976 z m -11.7676,29.79101 c 11.7725,0.46737 30.1096,15.55903 23.75,25.31055 -29.626,47.4015 -80.7982,109.88412 -85.1074,91.03125 -4.3092,-18.85286 53.8652,-113.11719 53.8652,-113.11719 1.414,-2.12095 3.6792,-3.1043 6.375,-3.22265 0.3651,-0.016 0.7374,-0.017 1.1172,-0.002 z m 51.7109,30.4336 c 11.7727,0.46736 30.1098,15.55903 23.75,25.31054 -29.626,47.4015 -80.7982,109.88412 -85.1074,91.03125 -4.3092,-18.85286 53.8652,-113.11719 53.8652,-113.11719 1.414,-2.12093 3.6793,-3.10429 6.375,-3.22265 0.3651,-0.016 0.7375,-0.017 1.1172,-0.002 z m 51.711,30.43359 c 11.7725,0.46737 30.1096,15.55903 23.75,25.31055 -29.626,47.4015 -80.7983,109.88607 -85.1075,91.0332 -4.3092,-18.85286 53.8653,-113.11719 53.8653,-113.11719 1.4139,-2.12095 3.6792,-3.10625 6.375,-3.22461 0.365,-0.016 0.7374,-0.017 1.1172,-0.002 z"
     style="opacity:1;vector-effect:none;fill:#4d4d4d;fill-opacity:1;stroke:#000000;stroke-width:11.33858299;stroke-linecap:round;stroke-linejoin:miter;stroke-miterlimit:4;stroke-dasharray:none;stroke-dashoffset:0;stroke-opacity:1;paint-order:fill markers stroke" />
  <path
     sodipodi:nodetypes="ssss"
     inkscape:connector-curvature="0"
     id="path922"
     d="m 593.19724,761.65945 c 4.4803,-12.51812 -7.92,-47.52 -43.92,-51.12 -42.7581,-4.27581 -46.08,28.8 -26.64,48.96 19.44,20.16 64.9207,17.91641 70.56,2.16 z"
     style="opacity:1;vector-effect:none;fill:#ffccaa;fill-opacity:1;stroke:#000000;stroke-width:11.33858299;stroke-linecap:round;stroke-linejoin:miter;stroke-miterlimit:4;stroke-dasharray:none;stroke-dashoffset:0;stroke-opacity:1;paint-order:fill markers stroke" />
  <path
     inkscape:connector-curvature="0"
     id="path925"
     d="m 666.63724,861.01945 c 0,0 18,-54.72 4.32,-86.4 -13.68,-31.68 -41.04,-46.08 -66.96,-38.88 -25.92,7.2 -44.64,37.43999 -43.92,56.16 0.72,18.72 14.4,27.36 31.68,20.88 -23.04,18.72 -30.24,40.32 -9.36,63.36 20.88,23.04 72.72,33.12 84.24,-15.12 z"
     style="opacity:1;vector-effect:none;fill:#ffccaa;fill-opacity:1;stroke:#000000;stroke-width:11.33858299;stroke-linecap:round;stroke-linejoin:miter;stroke-miterlimit:4;stroke-dasharray:none;stroke-dashoffset:0;stroke-opacity:1;paint-order:fill markers stroke" />
  <path
     sodipodi:nodetypes="ccccccccc"
     inkscape:connector-curvature="0"
     id="path927"
     d="m 994.95724,1006.4595 c 0,0 -269.28,-149.76005 -319.68,-167.04005 -56.16,33.12 -92.16,125.28 -92.16,125.28 0,0 92.16,260.64005 276.48,326.88005 -37.44,141.12 -57.6,387.36 -57.6,387.36 0,0 365.15376,170.069 715.94506,66.848 -22.4011,-374.71 -34.6199,-448.3123 -34.6199,-448.3123 l -105.8963,-146.6257 z"
     style="opacity:1;vector-effect:none;fill:#ffffff;fill-opacity:1;stroke:#000000;stroke-width:11.33858299;stroke-linecap:round;stroke-linejoin:miter;stroke-miterlimit:4;stroke-dasharray:none;stroke-dashoffset:0;stroke-opacity:1;paint-order:fill markers stroke" />
  <path
     style="opacity:1;vector-effect:none;fill:#e6e6e6;fill-opacity:1;stroke:none;stroke-width:50;stroke-linecap:round;stroke-linejoin:miter;stroke-miterlimit:4;stroke-dasharray:none;stroke-dashoffset:0;stroke-opacity:1;paint-order:fill markers stroke"
     d="m 987.69334,1211.4662 c 6.0941,4.5706 12.1883,62.4652 92.93596,89.8889 -18.2825,51.8005 -9.903,91.4125 -9.903,91.4125 0,0 107.9702,10.9771 153.8777,-39.612 18.2825,25.1384 57.8946,-2.2854 57.8946,-2.2854 0,0 67.7976,55.6093 155.4013,15.2355 1.5235,-40.3739 -21.3296,-81.5095 -21.3296,-81.5095 0,0 18.2825,-25.1385 19.806,-49.5151 1.5236,-24.3767 -448.68296,-23.6149 -448.68296,-23.6149 z"
     id="path1119"
     inkscape:connector-curvature="0" />
  <path
     inkscape:connector-curvature="0"
     id="path929"
     d="m 963.00494,1170.196 c 0,0 28.5106,86.5498 184.30036,122.188 96.7322,9.1641 221.9749,12.2188 267.7954,-34.6199 45.8206,-46.8388 61.0941,-96.7322 61.0941,-96.7322 z"
     style="opacity:1;vector-effect:none;fill:#d40000;fill-opacity:1;stroke:#000000;stroke-width:11.33858299;stroke-linecap:round;stroke-linejoin:miter;stroke-miterlimit:4;stroke-dasharray:none;stroke-dashoffset:0;stroke-opacity:1;paint-order:fill markers stroke" />
  <path
     inkscape:connector-curvature="0"
     id="path931"
     d="m 1063.8101,1194.6336 c 0,0 53.9664,83.4951 178.1909,77.3857 124.2245,-6.1094 164.9539,-85.5316 164.9539,-85.5316 z"
     style="opacity:1;vector-effect:none;fill:#d40000;fill-opacity:1;stroke:#000000;stroke-width:11.33858299;stroke-linecap:round;stroke-linejoin:miter;stroke-miterlimit:4;stroke-dasharray:none;stroke-dashoffset:0;stroke-opacity:1;paint-order:fill markers stroke" />
  <path
     sodipodi:nodetypes="csccc"
     inkscape:connector-curvature="0"
     id="path933"
     d="m 964.71724,816.37945 c 0,0 40.31996,-125.28 83.51996,-195.84 43.2,-70.56 217.44,-95.04 322.56,-50.4 61.92,83.52 77.76,142.56 108,244.8 -69.12,41.76 -407.52,118.08 -514.07996,1.44 z"
     style="opacity:1;vector-effect:none;fill:#484537;fill-opacity:1;stroke:#000000;stroke-width:11.33858299;stroke-linecap:round;stroke-linejoin:miter;stroke-miterlimit:4;stroke-dasharray:none;stroke-dashoffset:0;stroke-opacity:1;paint-order:fill markers stroke" />
  <path
     inkscape:connector-curvature="0"
     id="path935"
     d="m 1223.6728,1310.7122 c 0,0 -15.2735,44.8023 -137.4616,48.8752 11.2006,-110.9874 96.7322,-128.2974 136.4434,-124.2245 39.7111,4.073 38.6928,5.0912 38.6928,5.0912 0,0 124.2246,-60.0758 159.8627,100.8051 -129.3157,17.31 -150.6986,-38.6928 -150.6986,-38.6928 z"
     style="opacity:1;vector-effect:none;fill:#d40000;fill-opacity:1;stroke:#000000;stroke-width:11.33858299;stroke-linecap:round;stroke-linejoin:miter;stroke-miterlimit:4;stroke-dasharray:none;stroke-dashoffset:0;stroke-opacity:1;paint-order:fill markers stroke" />
  <path
     style="opacity:1;vector-effect:none;fill:#800000;fill-opacity:1;stroke:none;stroke-width:50;stroke-linecap:round;stroke-linejoin:miter;stroke-miterlimit:4;stroke-dasharray:none;stroke-dashoffset:0;stroke-opacity:1;paint-order:fill markers stroke"
     d="m 1299.7707,1252.3699 c 0,0 -3.7712,34.4738 -18.8535,46.3242 40.399,16.6982 102.3437,16.6973 102.3437,16.6973 0,0 -46.8617,-55.4804 -83.4902,-63.0215 z m -98.0351,5.9238 c 0,0 -76.489,34.4746 -85.1075,78.1055 60.3292,-10.773 100.7285,-38.2442 100.7286,-38.2442 z"
     id="path1127"
     inkscape:connector-curvature="0" />
  <path
     inkscape:connector-curvature="0"
     id="path937"
     d="m 1195.1622,1224.1624 c 0,0 12.2188,93.6775 37.6747,102.8416 37.6746,1.0182 44.8023,-9.1641 44.8023,-9.1641 0,0 36.6564,-31.5653 33.6017,-95.714 -40.7294,-30.547 -98.7687,-10.1823 -116.0787,2.0365 z"
     style="opacity:1;vector-effect:none;fill:#d40000;fill-opacity:1;stroke:#000000;stroke-width:11.33858299;stroke-linecap:round;stroke-linejoin:miter;stroke-miterlimit:4;stroke-dasharray:none;stroke-dashoffset:0;stroke-opacity:1;paint-order:fill markers stroke" />
  <path
     inkscape:connector-curvature="0"
     id="path939"
     d="m 1078.4772,646.45945 c 0,0 -53.28,120.96 -63.36,175.68 -43.19996,-48.96 -95.03996,-33.12 -106.55996,5.76 -11.52,38.88 36,86.4 79.2,54.72 -31.68,105.12 -44.64,182.88005 -48.96,288.00005 146.87996,96.48 465.11996,83.52 548.63996,-11.52 -5.76,-210.24005 -27.36,-276.48005 -27.36,-276.48005 0,0 73.44,1.44 67.68,-63.36 -5.76,-64.8 -69.12,-54.72 -96.48,-20.16 -14.4,-69.12 -40.32,-142.56 -46.08,-162.72 -5.76,-20.16 -277.92,-59.04 -306.72,10.08 z"
     style="opacity:1;vector-effect:none;fill:#ffccaa;fill-opacity:1;stroke:#000000;stroke-width:11.33858299;stroke-linecap:round;stroke-linejoin:miter;stroke-miterlimit:4;stroke-dasharray:none;stroke-dashoffset:0;stroke-opacity:1;paint-order:fill markers stroke" />
  <path
     sodipodi:nodetypes="cccc"
     inkscape:connector-curvature="0"
     id="path941"
     d="m 1220.6181,439.10407 c 0,0 -175.1362,89.60458 -289.17836,197.53735 231.13906,83.49517 470.07966,39.57881 594.64846,-8.14587 -84.5558,-92.90633 -305.4701,-189.39148 -305.4701,-189.39148 z"
     style="opacity:1;vector-effect:none;fill:#d3ac5f;fill-opacity:1;stroke:#000000;stroke-width:11.33858299;stroke-linecap:round;stroke-linejoin:miter;stroke-miterlimit:4;stroke-dasharray:none;stroke-dashoffset:0;stroke-opacity:1;paint-order:fill markers stroke" />
  <path
     sodipodi:nodetypes="ccccc"
     inkscape:connector-curvature="0"
     id="path943"
     d="m 1258.2927,706.89955 c 0,0 1.0182,32.58348 7.1276,38.69289 73.3129,20.36467 109.9693,18.3282 109.9693,18.3282 0,0 27.4923,-28.51054 8.1459,-73.31283 -76.3675,-9.1641 -125.2428,16.29174 -125.2428,16.29174 z"
     style="opacity:1;vector-effect:none;fill:#484537;fill-opacity:1;stroke:#000000;stroke-width:11.33858299;stroke-linecap:round;stroke-linejoin:miter;stroke-miterlimit:4;stroke-dasharray:none;stroke-dashoffset:0;stroke-opacity:1;paint-order:fill markers stroke" />
  <path
     style="opacity:1;vector-effect:none;fill:#484537;fill-opacity:1;stroke:#000000;stroke-width:11.33858299;stroke-linecap:round;stroke-linejoin:miter;stroke-miterlimit:4;stroke-dasharray:none;stroke-dashoffset:0;stroke-opacity:1;paint-order:fill markers stroke"
     d="m 1197.8422,706.89955 c 0,0 -1.0182,32.58348 -7.1276,38.69289 -73.3129,20.36467 -109.9693,18.3282 -109.9693,18.3282 0,0 -27.4923,-28.51054 -8.1459,-73.31283 76.3675,-9.1641 125.2428,16.29174 125.2428,16.29174 z"
     id="path945"
     inkscape:connector-curvature="0"
     sodipodi:nodetypes="ccccc" />
  <g
     id="g953"
     transform="translate(-542.96276,40.219452)"
     style="stroke:none">
    <circle
       style="opacity:1;vector-effect:none;fill:#484537;fill-opacity:1;stroke:#000000;stroke-width:11.33858299;stroke-linecap:round;stroke-linejoin:miter;stroke-miterlimit:4;stroke-dasharray:none;stroke-dashoffset:0;stroke-opacity:1;paint-order:fill markers stroke"
       id="circle947"
       cx="1684.6677"
       cy="791.41376"
       r="19.670259" />
    <circle
       r="11.39026"
       cy="783.85376"
       cx="1678.1877"
       id="circle949"
       style="opacity:1;vector-effect:none;fill:#ffffff;fill-opacity:1;stroke:none;stroke-width:11.33858299;stroke-linecap:round;stroke-linejoin:miter;stroke-miterlimit:4;stroke-dasharray:none;stroke-dashoffset:0;stroke-opacity:1;paint-order:fill markers stroke" />
    <circle
       style="opacity:1;vector-effect:none;fill:#ffffff;fill-opacity:1;stroke:none;stroke-width:11.33858299;stroke-linecap:round;stroke-linejoin:miter;stroke-miterlimit:4;stroke-dasharray:none;stroke-dashoffset:0;stroke-opacity:1;paint-order:fill markers stroke"
       id="circle951"
       cx="1695.8278"
       cy="801.85376"
       r="7.0702596" />
  </g>
  <g
     transform="translate(-380.55446,40.219452)"
     id="g961"
     style="stroke:none">
    <circle
       r="19.670259"
       cy="791.41376"
       cx="1684.6677"
       id="circle955"
       style="opacity:1;vector-effect:none;fill:#484537;fill-opacity:1;stroke:#000000;stroke-width:11.33858299;stroke-linecap:round;stroke-linejoin:miter;stroke-miterlimit:4;stroke-dasharray:none;stroke-dashoffset:0;stroke-opacity:1;paint-order:fill markers stroke" />
    <circle
       style="opacity:1;vector-effect:none;fill:#ffffff;fill-opacity:1;stroke:none;stroke-width:11.33858299;stroke-linecap:round;stroke-linejoin:miter;stroke-miterlimit:4;stroke-dasharray:none;stroke-dashoffset:0;stroke-opacity:1;paint-order:fill markers stroke"
       id="circle957"
       cx="1678.1877"
       cy="783.85376"
       r="11.39026" />
    <circle
       r="7.0702596"
       cy="801.85376"
       cx="1695.8278"
       id="circle959"
       style="opacity:1;vector-effect:none;fill:#ffffff;fill-opacity:1;stroke:none;stroke-width:11.33858299;stroke-linecap:round;stroke-linejoin:miter;stroke-miterlimit:4;stroke-dasharray:none;stroke-dashoffset:0;stroke-opacity:1;paint-order:fill markers stroke" />
  </g>
  <path
     inkscape:connector-curvature="0"
     id="path963"
     d="m 932.45794,840.79729 c 0,0 15.7827,-31.56524 38.6929,-4.07293 9.1641,12.72792 6.6185,25.96496 -1.0182,30.03789 -7.6368,4.07294 -19.8556,-10.18233 -15.2735,-20.36467 4.582,-10.18234 15.7826,-10.18234 15.7826,-10.18234"
     style="opacity:1;vector-effect:none;fill:none;fill-opacity:1;stroke:#000000;stroke-width:11.33858299;stroke-linecap:round;stroke-linejoin:miter;stroke-miterlimit:4;stroke-dasharray:none;stroke-dashoffset:0;stroke-opacity:1;paint-order:fill markers stroke" />
  <path
     style="opacity:1;vector-effect:none;fill:none;fill-opacity:1;stroke:#000000;stroke-width:11.33858299;stroke-linecap:round;stroke-linejoin:miter;stroke-miterlimit:4;stroke-dasharray:none;stroke-dashoffset:0;stroke-opacity:1;paint-order:fill markers stroke"
     d="m 1499.696,827.83729 c 0,0 -15.7827,-31.56524 -38.6929,-4.07293 -9.1641,12.72792 -6.6185,25.96496 1.0182,30.03789 7.6368,4.07294 19.8556,-10.18233 15.2735,-20.36467 -4.582,-10.18234 -15.7826,-10.18234 -15.7826,-10.18234"
     id="path965"
     inkscape:connector-curvature="0" />
  <path
     inkscape:connector-curvature="0"
     id="path967"
     d="m 1079.0836,987.93207 c 0,0 15.2735,113.02403 134.4068,121.16983 119.1334,8.1459 148.6622,-128.29746 148.6622,-128.29746 z"
     style="opacity:1;vector-effect:none;fill:#2b0000;fill-opacity:1;stroke:#000000;stroke-width:11.33858299;stroke-linecap:round;stroke-linejoin:miter;stroke-miterlimit:4;stroke-dasharray:none;stroke-dashoffset:0;stroke-opacity:1;paint-order:fill markers stroke" />
  <path
     inkscape:connector-curvature="0"
     id="path969"
     d="m 1154.7972,921.49945 c 0,0 -80.64,14.4 -120.96,61.92 120.24,61.92005 300.24,45.36005 363.6,-15.84 -83.52,-46.8 -142.56,-59.04 -242.64,-46.08 z"
     style="opacity:1;vector-effect:none;fill:#484537;fill-opacity:1;stroke:#000000;stroke-width:11.33858299;stroke-linecap:round;stroke-linejoin:miter;stroke-miterlimit:4;stroke-dasharray:none;stroke-dashoffset:0;stroke-opacity:1;paint-order:fill markers stroke" />
  <path
     sodipodi:nodetypes="csssc"
     inkscape:connector-curvature="0"
     id="path971"
     d="m 1167.7572,896.29945 c 0,0 -38.16,20.16 -34.56,41.04 3.6,20.88 77.3804,37.4264 121.68,25.92 55.44,-14.4 64.8,-31.68 56.16,-46.08 -5.7507,-9.58455 -33.84,-24.48 -33.84,-24.48"
     style="opacity:1;vector-effect:none;fill:#ffccaa;fill-opacity:1;stroke:#000000;stroke-width:11.33858299;stroke-linecap:round;stroke-linejoin:miter;stroke-miterlimit:4;stroke-dasharray:none;stroke-dashoffset:0;stroke-opacity:1;paint-order:fill markers stroke" />
  <path
     id="path973"
     d="m 1221.5079,1046.9793 c -37.6793,-0.014 -69.5644,15.0967 -92.1152,30.2929 19.6585,16.435 46.7813,29.2786 84.0976,31.8301 42.4667,2.9037 73.5407,-12.5698 95.9571,-33.6816 -31.3819,-20.7507 -61.1248,-28.4313 -87.9395,-28.4414 z"
     style="opacity:1;vector-effect:none;fill:#d40000;fill-opacity:1;stroke:#000000;stroke-width:11.33858299;stroke-linecap:round;stroke-linejoin:miter;stroke-miterlimit:4;stroke-dasharray:none;stroke-dashoffset:0;stroke-opacity:1;paint-order:fill markers stroke"
     inkscape:connector-curvature="0" />
  <circle
     style="opacity:1;vector-effect:none;fill:#333333;fill-opacity:1;stroke:#000000;stroke-width:11.33858299;stroke-linecap:round;stroke-linejoin:miter;stroke-miterlimit:4;stroke-dasharray:none;stroke-dashoffset:0;stroke-opacity:1;paint-order:fill markers stroke"
     id="circle975"
     cx="1435.5974"
     cy="1406.7795"
     r="14.4" />
  <circle
     style="opacity:1;vector-effect:none;fill:#333333;fill-opacity:1;stroke:#000000;stroke-width:11.33858299;stroke-linecap:round;stroke-linejoin:miter;stroke-miterlimit:4;stroke-dasharray:none;stroke-dashoffset:0;stroke-opacity:1;paint-order:fill markers stroke"
     id="circle977"
     cx="1441.3572"
     cy="1503.2595"
     r="14.4" />
  <circle
     r="14.4"
     cy="1602.6195"
     cx="1445.6775"
     id="circle979"
     style="opacity:1;vector-effect:none;fill:#333333;fill-opacity:1;stroke:#000000;stroke-width:11.33858299;stroke-linecap:round;stroke-linejoin:miter;stroke-miterlimit:4;stroke-dasharray:none;stroke-dashoffset:0;stroke-opacity:1;paint-order:fill markers stroke" />
  <path
     style="opacity:1;vector-effect:none;fill:#ffccaa;fill-opacity:1;stroke:#000000;stroke-width:11.33858299;stroke-linecap:round;stroke-linejoin:miter;stroke-miterlimit:4;stroke-dasharray:none;stroke-dashoffset:0;stroke-opacity:1;paint-order:fill markers stroke"
     d="m 533.43724,901.33945 c 4.4803,-12.51812 -7.92,-47.52 -43.92,-51.12 -42.7581,-4.27581 -46.08,28.8 -26.64,48.96 19.44,20.16 64.9207,17.91641 70.56,2.16 z"
     id="path981"
     inkscape:connector-curvature="0"
     sodipodi:nodetypes="ssss" />
  <path
     sodipodi:nodetypes="ssss"
     inkscape:connector-curvature="0"
     id="path983"
     d="m 544.23724,856.69945 c 4.4803,-12.51812 -7.92,-47.52 -43.92,-51.12 -42.7581,-4.27581 -46.08,28.8 -26.64,48.96 19.44,20.16 64.9207,17.91641 70.56,2.16 z"
     style="opacity:1;vector-effect:none;fill:#ffccaa;fill-opacity:1;stroke:#000000;stroke-width:11.33858299;stroke-linecap:round;stroke-linejoin:miter;stroke-miterlimit:4;stroke-dasharray:none;stroke-dashoffset:0;stroke-opacity:1;paint-order:fill markers stroke" />
  <path
     style="opacity:1;vector-effect:none;fill:#ffccaa;fill-opacity:1;stroke:#000000;stroke-width:11.33858299;stroke-linecap:round;stroke-linejoin:miter;stroke-miterlimit:4;stroke-dasharray:none;stroke-dashoffset:0;stroke-opacity:1;paint-order:fill markers stroke"
     d="m 560.79724,810.61945 c 4.4803,-12.51812 -7.92,-47.52 -43.92,-51.12 -42.7581,-4.27581 -46.08,28.8 -26.64,48.96 19.44,20.16 64.9207,17.91641 70.56,2.16 z"
     id="path985"
     inkscape:connector-curvature="0"
     sodipodi:nodetypes="ssss" />
  <path
     id="path987"
     d="m 692.74034,2105.9109 c -2.1035,5.2506 -3.233,10.3356 -3.0625,15.1094 1.44,40.32 198.7189,74.8784 280.7989,14.3984 -0.3994,-8.1869 -0.9718,-15.7835 -1.6563,-22.834 -125.5101,61.2698 -231.9915,17.8455 -276.0801,-6.6738 z"
     style="opacity:1;vector-effect:none;fill:#2b0000;fill-opacity:1;stroke:#000000;stroke-width:11.33858299;stroke-linecap:round;stroke-linejoin:miter;stroke-miterlimit:4;stroke-dasharray:none;stroke-dashoffset:0;stroke-opacity:1;paint-order:fill markers stroke"
     inkscape:connector-curvature="0" />
  <path
     sodipodi:nodetypes="cc"
     inkscape:connector-curvature="0"
     id="path989"
     d="m 585.49484,814.83234 c 0,0 26.8559,-8.0186 35.1291,-22.78299"
     style="opacity:1;vector-effect:none;fill:#502d16;fill-opacity:1;stroke:#000000;stroke-width:11.33858299;stroke-linecap:round;stroke-linejoin:miter;stroke-miterlimit:4;stroke-dasharray:none;stroke-dashoffset:0;stroke-opacity:1;paint-order:fill markers stroke" />
  <path
     inkscape:connector-curvature="0"
     id="path991"
     d="m 1605.2311,412.36846 c 0,0 -39.6121,-74.65355 -129.501,-57.89459 -89.889,16.75896 -86.8419,47.22979 -62.4652,56.37104 24.3766,9.14125 117.3127,-39.61208 191.9662,1.52355 z"
     style="opacity:1;vector-effect:none;fill:#4d4d4d;fill-opacity:1;stroke:#000000;stroke-width:11.33858299;stroke-linecap:round;stroke-linejoin:miter;stroke-miterlimit:4;stroke-dasharray:none;stroke-dashoffset:0;stroke-opacity:1;paint-order:fill markers stroke" />
  <path
     style="opacity:1;vector-effect:none;fill:#726d56;fill-opacity:1;stroke:none;stroke-width:50;stroke-linecap:round;stroke-linejoin:miter;stroke-miterlimit:4;stroke-dasharray:none;stroke-dashoffset:0;stroke-opacity:1;paint-order:fill markers stroke"
     d="m 1159.4726,706.03113 c 0,0 -46.468,-10.66479 -76.9388,-4.57062 -7.9986,22.47224 1.5235,45.32537 1.5235,45.32537 0,0 -0.3809,-28.9473 5.7133,-36.94589 28.9473,-6.85594 69.702,-3.80886 69.702,-3.80886 z"
     id="path1104"
     inkscape:connector-curvature="0" />
  <path
     style="opacity:1;vector-effect:none;fill:#726d56;fill-opacity:1;stroke:none;stroke-width:50;stroke-linecap:round;stroke-linejoin:miter;stroke-miterlimit:4;stroke-dasharray:none;stroke-dashoffset:0;stroke-opacity:1;paint-order:fill markers stroke"
     d="m 1272.5956,735.35931 c 0,0 -2.6662,-12.9501 -0.7618,-20.56781 15.6163,-8.76037 69.7021,-15.23542 102.0773,-13.71188 -42.6591,7.9986 -94.0787,17.90162 -94.0787,17.90162 0,0 -1.5235,10.66479 -7.2368,16.37807 z"
     id="path1106"
     inkscape:connector-curvature="0" />
  <path
     style="opacity:1;vector-effect:none;fill:#e7d2a9;fill-opacity:1;stroke:none;stroke-width:50;stroke-linecap:round;stroke-linejoin:miter;stroke-miterlimit:4;stroke-dasharray:none;stroke-dashoffset:0;stroke-opacity:1;paint-order:fill markers stroke"
     d="m 1215.4628,459.59825 c 0,0 -205.6782,127.97751 -237.67246,170.63668 137.11866,32.75615 254.43136,25.90021 254.43136,25.90021 0,0 -180.5397,-19.04427 -202.631,-35.04146 15.9972,-16.75896 27.4237,-23.6149 27.4237,-23.6149 0,0 96.7449,31.99438 182.0633,21.32959 -109.695,-6.09417 -159.9719,-35.80323 -159.9719,-35.80323 z"
     id="path1108"
     inkscape:connector-curvature="0" />
  <path
     style="opacity:1;vector-effect:none;fill:#9c762c;fill-opacity:1;stroke:none;stroke-width:50;stroke-linecap:round;stroke-linejoin:miter;stroke-miterlimit:4;stroke-dasharray:none;stroke-dashoffset:0;stroke-opacity:1;paint-order:fill markers stroke"
     d="m 1230.6984,460.36007 c 0,0 105.8373,71.09887 173.0547,118.58204 -15.4681,6.88337 -71.3514,29.84138 -144.8691,37.58007 69.7858,-5.12189 142.6663,-19.26473 164.3594,-23.6875 16.3406,11.78276 28.5781,21.00734 32.9394,25.21289 -31.2326,11.42656 -180.541,41.13477 -180.541,41.13477 0,0 154.6403,-15.23491 217.1055,-35.80273 -31.2326,-44.94448 -257.4783,-163.01954 -262.0489,-163.01954 z"
     id="path1110"
     inkscape:connector-curvature="0" />
  <path
     style="opacity:1;vector-effect:none;fill:#e6e6e6;fill-opacity:1;stroke:none;stroke-width:50;stroke-linecap:round;stroke-linejoin:miter;stroke-miterlimit:4;stroke-dasharray:none;stroke-dashoffset:0;stroke-opacity:1;paint-order:fill markers stroke"
     d="m 608.33144,982.17309 c 9.1412,10.66479 120.3598,271.19051 275.761,297.09071 -10.6648,41.1356 -67.0358,287.9494 -59.4181,393.0738 86.8419,30.4708 213.29586,62.4652 213.29586,62.4652 0,0 -146.26006,-85.3184 -158.44836,-114.2657 18.2825,-124.9304 51.8004,-319.9437 54.8475,-326.0379 3.0471,-6.0942 42.6592,-63.9888 42.6592,-63.9888 l -76.1771,22.8532 c 0,0 -176.7309,-99.0302 -292.52,-271.19051 z"
     id="path1115"
     inkscape:connector-curvature="0" />
  <path
     style="opacity:1;vector-effect:none;fill:#e6e6e6;fill-opacity:1;stroke:none;stroke-width:50;stroke-linecap:round;stroke-linejoin:miter;stroke-miterlimit:4;stroke-dasharray:none;stroke-dashoffset:0;stroke-opacity:1;paint-order:fill markers stroke"
     d="m 1455.4412,1235.6709 44.1696,54.9426 31.2419,416.9177 c 0,0 62.4838,-5.3865 119.581,-36.6284 -48.4788,8.6184 -98.0349,7.5411 -98.0349,7.5411 l -28.01,-373.8254 44.1696,-9.6958 -4.3092,-21.5461 c 0,0 129.2768,-51.7107 226.2344,-355.51127 -73.2569,124.96767 -228.389,310.26437 -228.389,310.26437 l -80.012,-46.3726 c 0,0 -9.8618,36.9828 -26.6414,53.9138 z"
     id="path1117"
     inkscape:connector-curvature="0" />
  <path
     style="opacity:1;vector-effect:none;fill:#e6e6e6;fill-opacity:1;stroke:none;stroke-width:50;stroke-linecap:round;stroke-linejoin:miter;stroke-miterlimit:4;stroke-dasharray:none;stroke-dashoffset:0;stroke-opacity:1;paint-order:fill markers stroke"
     d="m 1127.94,1826.035 c -4.3093,-2.1547 -129.27676,0 -192.83786,-31.2419 46.3241,34.4738 87.26176,51.7107 87.26176,51.7107 0,0 -86.18446,141.1272 -89.41646,160.5187 -58.1745,5.3865 -128.1995,-4.3092 -128.1995,-4.3092 0,0 28.01,23.7007 137.8953,26.9326 62.48376,-88.3391 132.50866,-180.9875 185.29676,-203.6109 z"
     id="path1123"
     inkscape:connector-curvature="0" />
  <path
     style="opacity:1;vector-effect:none;fill:#e6e6e6;fill-opacity:1;stroke:none;stroke-width:50;stroke-linecap:round;stroke-linejoin:miter;stroke-miterlimit:4;stroke-dasharray:none;stroke-dashoffset:0;stroke-opacity:1;paint-order:fill markers stroke"
     d="m 1404.8078,1816.3392 186.3741,213.3067 c 0,0 76.4887,16.1596 126.0448,-14.005 -74.3341,3.232 -120.6583,-11.8503 -120.6583,-11.8503 l -119.5811,-156.2095 c 0,0 71.1023,-6.4638 114.1946,-54.9426 -76.4888,29.0872 -186.3741,23.7007 -186.3741,23.7007 z"
     id="path1125"
     inkscape:connector-curvature="0" />
  <path
     style="opacity:1;vector-effect:none;fill:#800000;fill-opacity:1;stroke:none;stroke-width:50;stroke-linecap:round;stroke-linejoin:miter;stroke-miterlimit:4;stroke-dasharray:none;stroke-dashoffset:0;stroke-opacity:1;paint-order:fill markers stroke"
     d="m 1217.8951,1253.9851 c 0,0 9.1571,55.4813 18.3142,59.7905 9.1571,4.3092 22.0851,6.4631 33.3965,-4.3092 11.3114,-10.7723 24.2394,-50.0948 24.2394,-57.6359 0,-7.5412 -23.1621,2.1546 -42.5536,1.6159 -19.3915,-0.5386 -32.3192,-4.8478 -33.3965,0.5387 z"
     id="path1132"
     inkscape:connector-curvature="0" />
  <path
     style="opacity:1;vector-effect:none;fill:#2d2b23;fill-opacity:1;stroke:none;stroke-width:50;stroke-linecap:round;stroke-linejoin:miter;stroke-miterlimit:4;stroke-dasharray:none;stroke-dashoffset:0;stroke-opacity:1;paint-order:fill markers stroke"
     d="m 1061.1469,979.27182 c 0,0 168.0599,73.25688 312.419,-7.54115 -71.1022,15.08229 -123.8903,43.09223 -312.419,7.54115 z"
     id="path1134"
     inkscape:connector-curvature="0" />
  <path
     style="opacity:1;vector-effect:none;fill:#ff2a2a;fill-opacity:1;stroke:none;stroke-width:50;stroke-linecap:round;stroke-linejoin:miter;stroke-miterlimit:4;stroke-dasharray:none;stroke-dashoffset:0;stroke-opacity:1;paint-order:fill markers stroke"
     d="m 1163.4911,1075.6908 c 2.1546,-0.5386 44.7082,-20.4688 67.3317,-9.6957 22.6234,10.773 -32.8579,26.9326 -67.3317,9.6957 z"
     id="path1136"
     inkscape:connector-curvature="0" />
  <path
     style="opacity:1;vector-effect:none;fill:#ffb17d;fill-opacity:1;stroke:none;stroke-width:50;stroke-linecap:round;stroke-linejoin:miter;stroke-miterlimit:4;stroke-dasharray:none;stroke-dashoffset:0;stroke-opacity:1;paint-order:fill markers stroke"
     d="m 1189.5626,1132.242 c 5.3324,0 74.6535,19.806 114.2656,-26.662 -16.759,67.0359 -79.9859,83.7948 -114.2656,26.662 z"
     id="path1138"
     inkscape:connector-curvature="0" />
</svg>
